<svg width="92" height="16" viewBox="0 0 92 16" fill="none" xmlns="http://www.w3.org/2000/svg">
<path d="M1.5 2.25H13.5C14.1869 2.25 14.75 2.81307 14.75 3.5V12.5C14.75 13.1869 14.1869 13.75 13.5 13.75H1.5C0.813071 13.75 0.25 13.1869 0.25 12.5L0.257812 3.5L0.263672 3.37207C0.327577 2.74322 0.857664 2.25 1.5 2.25ZM13.0674 3.7627C12.9499 3.73849 12.8285 3.73781 12.7109 3.76172C12.6227 3.77971 12.5375 3.81115 12.459 3.85449L12.3926 3.89551L7.5 6.9541L2.60742 3.89551H2.60645C2.51034 3.83096 2.40258 3.78487 2.28906 3.76172C2.17155 3.73781 2.05007 3.73849 1.93262 3.7627C1.81515 3.78695 1.70394 3.83483 1.60547 3.90332C1.50692 3.97187 1.423 4.05934 1.35938 4.16113C1.29579 4.26287 1.25381 4.37657 1.23535 4.49512C1.21692 4.61376 1.22221 4.73524 1.25195 4.85156C1.28169 4.96783 1.33513 5.07668 1.4082 5.17188C1.47874 5.26374 1.5669 5.34034 1.66699 5.39844V5.39941L6.96973 8.71484C7.25063 8.89041 7.60584 8.91191 7.90527 8.78027L8.03027 8.71484L13.333 5.39941L13.332 5.39844C13.4324 5.34029 13.5211 5.26396 13.5918 5.17188C13.6649 5.07668 13.7183 4.96783 13.748 4.85156C13.7778 4.73524 13.7831 4.61376 13.7646 4.49512C13.7462 4.37657 13.7042 4.26287 13.6406 4.16113C13.577 4.05934 13.4931 3.97187 13.3945 3.90332C13.2961 3.83483 13.1849 3.78695 13.0674 3.7627Z" fill="#13AB22" stroke="black" stroke-width="0.5"/>
<path d="M24.04 13L22.288 9.82H21.796V13H19.744V4.576H23.188C23.852 4.576 24.416 4.692 24.88 4.924C25.352 5.156 25.704 5.476 25.936 5.884C26.168 6.284 26.284 6.732 26.284 7.228C26.284 7.788 26.124 8.288 25.804 8.728C25.492 9.168 25.028 9.48 24.412 9.664L26.356 13H24.04ZM21.796 8.368H23.068C23.444 8.368 23.724 8.276 23.908 8.092C24.1 7.908 24.196 7.648 24.196 7.312C24.196 6.992 24.1 6.74 23.908 6.556C23.724 6.372 23.444 6.28 23.068 6.28H21.796V8.368ZM33.8841 9.544C33.8841 9.736 33.8721 9.936 33.8481 10.144H29.2041C29.2361 10.56 29.3681 10.88 29.6001 11.104C29.8401 11.32 30.1321 11.428 30.4761 11.428C30.9881 11.428 31.3441 11.212 31.5441 10.78H33.7281C33.6161 11.22 33.4121 11.616 33.1161 11.968C32.8281 12.32 32.4641 12.596 32.0241 12.796C31.5841 12.996 31.0921 13.096 30.5481 13.096C29.8921 13.096 29.3081 12.956 28.7961 12.676C28.2841 12.396 27.8841 11.996 27.5961 11.476C27.3081 10.956 27.1641 10.348 27.1641 9.652C27.1641 8.956 27.3041 8.348 27.5841 7.828C27.8721 7.308 28.2721 6.908 28.7841 6.628C29.2961 6.348 29.8841 6.208 30.5481 6.208C31.1961 6.208 31.7721 6.344 32.2761 6.616C32.7801 6.888 33.1721 7.276 33.4521 7.78C33.7401 8.284 33.8841 8.872 33.8841 9.544ZM31.7841 9.004C31.7841 8.652 31.6641 8.372 31.4241 8.164C31.1841 7.956 30.8841 7.852 30.5241 7.852C30.1801 7.852 29.8881 7.952 29.6481 8.152C29.4161 8.352 29.2721 8.636 29.2161 9.004H31.7841ZM34.5587 9.64C34.5587 8.952 34.6867 8.348 34.9427 7.828C35.2067 7.308 35.5627 6.908 36.0107 6.628C36.4587 6.348 36.9587 6.208 37.5107 6.208C37.9827 6.208 38.3947 6.304 38.7467 6.496C39.1067 6.688 39.3827 6.94 39.5747 7.252V6.304H41.6267V13H39.5747V12.052C39.3747 12.364 39.0947 12.616 38.7347 12.808C38.3827 13 37.9707 13.096 37.4987 13.096C36.9547 13.096 36.4587 12.956 36.0107 12.676C35.5627 12.388 35.2067 11.984 34.9427 11.464C34.6867 10.936 34.5587 10.328 34.5587 9.64ZM39.5747 9.652C39.5747 9.14 39.4307 8.736 39.1427 8.44C38.8627 8.144 38.5187 7.996 38.1107 7.996C37.7027 7.996 37.3547 8.144 37.0667 8.44C36.7867 8.728 36.6467 9.128 36.6467 9.64C36.6467 10.152 36.7867 10.56 37.0667 10.864C37.3547 11.16 37.7027 11.308 38.1107 11.308C38.5187 11.308 38.8627 11.16 39.1427 10.864C39.4307 10.568 39.5747 10.164 39.5747 9.652ZM42.7032 9.652C42.7032 8.956 42.8432 8.348 43.1232 7.828C43.4112 7.308 43.8072 6.908 44.3112 6.628C44.8232 6.348 45.4072 6.208 46.0632 6.208C46.9032 6.208 47.6032 6.428 48.1632 6.868C48.7312 7.308 49.1032 7.928 49.2792 8.728H47.0952C46.9112 8.216 46.5552 7.96 46.0272 7.96C45.6512 7.96 45.3512 8.108 45.1272 8.404C44.9032 8.692 44.7912 9.108 44.7912 9.652C44.7912 10.196 44.9032 10.616 45.1272 10.912C45.3512 11.2 45.6512 11.344 46.0272 11.344C46.5552 11.344 46.9112 11.088 47.0952 10.576H49.2792C49.1032 11.36 48.7312 11.976 48.1632 12.424C47.5952 12.872 46.8952 13.096 46.0632 13.096C45.4072 13.096 44.8232 12.956 44.3112 12.676C43.8072 12.396 43.4112 11.996 43.1232 11.476C42.8432 10.956 42.7032 10.348 42.7032 9.652ZM54.4928 6.232C55.2608 6.232 55.8768 6.488 56.3408 7C56.8048 7.504 57.0368 8.2 57.0368 9.088V13H54.9968V9.364C54.9968 8.916 54.8808 8.568 54.6488 8.32C54.4168 8.072 54.1048 7.948 53.7128 7.948C53.3208 7.948 53.0088 8.072 52.7768 8.32C52.5448 8.568 52.4288 8.916 52.4288 9.364V13H50.3768V4.12H52.4288V7.204C52.6368 6.908 52.9208 6.672 53.2808 6.496C53.6408 6.32 54.0448 6.232 54.4928 6.232ZM68.0028 4.576V13H65.9508V7.948L64.0668 13H62.4108L60.5148 7.936V13H58.4628V4.576H60.8867L63.2508 10.408L65.5908 4.576H68.0028ZM69.0704 9.64C69.0704 8.952 69.1984 8.348 69.4544 7.828C69.7184 7.308 70.0744 6.908 70.5224 6.628C70.9704 6.348 71.4704 6.208 72.0224 6.208C72.4944 6.208 72.9064 6.304 73.2584 6.496C73.6184 6.688 73.8944 6.94 74.0864 7.252V6.304H76.1384V13H74.0864V12.052C73.8864 12.364 73.6064 12.616 73.2464 12.808C72.8944 13 72.4824 13.096 72.0104 13.096C71.4664 13.096 70.9704 12.956 70.5224 12.676C70.0744 12.388 69.7184 11.984 69.4544 11.464C69.1984 10.936 69.0704 10.328 69.0704 9.64ZM74.0864 9.652C74.0864 9.14 73.9424 8.736 73.6544 8.44C73.3744 8.144 73.0304 7.996 72.6224 7.996C72.2144 7.996 71.8664 8.144 71.5784 8.44C71.2984 8.728 71.1584 9.128 71.1584 9.64C71.1584 10.152 71.2984 10.56 71.5784 10.864C71.8664 11.16 72.2144 11.308 72.6224 11.308C73.0304 11.308 73.3744 11.16 73.6544 10.864C73.9424 10.568 74.0864 10.164 74.0864 9.652ZM81.3549 11.26V13H80.3109C79.5669 13 78.9869 12.82 78.5709 12.46C78.1549 12.092 77.9469 11.496 77.9469 10.672V8.008H77.1309V6.304H77.9469V4.672H79.9989V6.304H81.3429V8.008H79.9989V10.696C79.9989 10.896 80.0469 11.04 80.1429 11.128C80.2389 11.216 80.3989 11.26 80.6229 11.26H81.3549ZM88.8099 9.544C88.8099 9.736 88.7979 9.936 88.7739 10.144H84.1299C84.1619 10.56 84.2939 10.88 84.5259 11.104C84.7659 11.32 85.0579 11.428 85.4019 11.428C85.9139 11.428 86.2699 11.212 86.4699 10.78H88.6539C88.5419 11.22 88.3379 11.616 88.0419 11.968C87.7539 12.32 87.3899 12.596 86.9499 12.796C86.5099 12.996 86.0179 13.096 85.4739 13.096C84.8179 13.096 84.2339 12.956 83.7219 12.676C83.2099 12.396 82.8099 11.996 82.5219 11.476C82.2339 10.956 82.0899 10.348 82.0899 9.652C82.0899 8.956 82.2299 8.348 82.5099 7.828C82.7979 7.308 83.1979 6.908 83.7099 6.628C84.2219 6.348 84.8099 6.208 85.4739 6.208C86.1219 6.208 86.6979 6.344 87.2019 6.616C87.7059 6.888 88.0979 7.276 88.3779 7.78C88.6659 8.284 88.8099 8.872 88.8099 9.544ZM86.7099 9.004C86.7099 8.652 86.5899 8.372 86.3499 8.164C86.1099 7.956 85.8099 7.852 85.4499 7.852C85.1059 7.852 84.8139 7.952 84.5739 8.152C84.3419 8.352 84.1979 8.636 84.1419 9.004H86.7099Z" fill="black"/>
</svg>
