<svg width="20" height="16" viewBox="0 0 20 16" fill="none" xmlns="http://www.w3.org/2000/svg">
<path d="M2 0.25H18C18.9619 0.25 19.75 1.03807 19.75 2V14C19.75 14.9619 18.9619 15.75 18 15.75H2C1.03807 15.75 0.25 14.9619 0.25 14L0.259766 2L0.268555 1.82129C0.357833 0.941042 1.09979 0.25 2 0.25ZM17.4062 2.43164C17.2605 2.4016 17.1097 2.40092 16.9639 2.43066C16.8546 2.45297 16.7496 2.49219 16.6523 2.5459L16.5674 2.59766L10 6.7041L3.43262 2.59766H3.43164C3.31194 2.51679 3.17775 2.45957 3.03613 2.43066C2.89032 2.40092 2.7395 2.4016 2.59375 2.43164C2.44811 2.4617 2.30958 2.52056 2.1875 2.60547C2.06541 2.69042 1.96164 2.79965 1.88281 2.92578C1.80404 3.05188 1.75234 3.19292 1.72949 3.33984C1.70665 3.48685 1.71317 3.63712 1.75 3.78125C1.78685 3.92538 1.85278 4.0607 1.94336 4.17871C2.0315 4.29351 2.14223 4.38873 2.26758 4.46094V4.46191L9.33789 8.88184C9.68883 9.10107 10.1326 9.12839 10.5068 8.96387L10.6621 8.88184L17.7324 4.46191L17.7314 4.46094C17.8571 4.38868 17.9683 4.29373 18.0566 4.17871C18.1472 4.0607 18.2131 3.92538 18.25 3.78125C18.2868 3.63712 18.2933 3.48684 18.2705 3.33984C18.2477 3.19292 18.196 3.05188 18.1172 2.92578C18.0384 2.79965 17.9346 2.69042 17.8125 2.60547C17.6904 2.52056 17.5519 2.4617 17.4062 2.43164Z" fill="#13AB22" stroke="white" stroke-width="0.5"/>
</svg>
